<svg xmlns="http://www.w3.org/2000/svg" viewBox="450 530 1150 1000">
<path fill="#34a85c" d="M 1050.82 1009.22 C 1069.59 991.003 1088.66 969.083 1107.17 949.955 L 1248.78 803.561 C 1252.2 800.021 1281.35 770.604 1282.14 768.143 C 1278.26 756.327 1210.1 706.854 1207.09 693.462 C 1208.66 691.333 1264.26 678.413 1271.21 676.665 L 1456.56 629.902 C 1471.33 626.336 1486.06 622.633 1500.76 618.795 C 1508.85 616.685 1526.65 611.239 1534.06 611.308 C 1533.81 619.935 1527.98 640.015 1525.58 649.126 L 1507.96 715.222 L 1453.41 921.636 C 1435.48 904.476 1405.13 875.041 1386.34 860.163 C 1361.13 887.774 1327.73 918.59 1300.47 945.185 C 1242.09 1002.06 1183.38 1058.6 1124.36 1114.81 C 1114.14 1124.58 1068.02 1171.26 1061.99 1173.85 C 1054.97 1174.15 959.265 1086.89 945.299 1077.67 C 940.718 1074.65 938.122 1069.68 931.632 1072.62 C 906.556 1084 881.368 1096.67 856.615 1108.67 C 785.955 1142.95 714.99 1176.59 643.729 1209.6 L 582.169 1238.46 C 566.374 1245.73 546.917 1254.03 531.878 1262.44 C 521.363 1267.08 508.107 1275.6 496.664 1277.38 L 495.643 1276.53 C 498.268 1269.89 520.454 1252 526.74 1246.94 C 533.362 1239.57 545.994 1228.97 553.636 1222.01 L 601.895 1177.79 C 655.446 1128.04 709.412 1078.75 763.787 1029.91 L 874.475 928.523 C 880.37 923.114 921.835 883.988 926.476 882.147 C 927.323 882.194 928.17 882.241 929.017 882.288 C 969.083 922.47 1007.98 964.048 1047.5 1004.81 C 1048.69 1006.04 1050.16 1008.22 1050.82 1009.22 z"/>
<path fill="#13213a" d="M 1381.94 953.55 L 1383.77 955.025 C 1385.27 962.708 1370.53 1022.05 1367.64 1033.78 C 1333.86 1171.09 1264.96 1281.7 1156.98 1373.03 C 1117.64 1406.18 1074.48 1434.5 1028.43 1457.41 C 1023.32 1459.92 1007.53 1468.19 1003.03 1466.56 C 917.466 1435.47 823.142 1356.23 768.299 1289.85 C 763.501 1285.11 738.051 1251.78 736.437 1245.47 C 736.927 1244.46 736.916 1244.31 737.84 1243.38 C 739.338 1241.87 808.358 1211.03 814.733 1208.66 C 818.174 1207.38 822.118 1205.95 825.825 1206.19 C 829.235 1206.41 864.941 1251.47 870.04 1256.82 C 901.766 1290.16 938.09 1318.24 977.082 1342.52 C 984.317 1347.02 996.877 1356.32 1005.52 1355.91 C 1013.45 1355.53 1047.2 1332.21 1055.25 1326.66 C 1123.21 1279.8 1182.72 1216.27 1220.99 1142.77 C 1226.18 1132.6 1231.07 1122.28 1235.67 1111.82 C 1238.51 1105.29 1249.25 1078.45 1252.66 1075 C 1293.77 1033.4 1341.41 995.482 1381.94 953.55 z"/>
<path fill="#13213a" d="M 1004.46 578.061 C 1052.13 600.357 1099.29 618.939 1150.44 631.811 C 1160.58 634.363 1183.77 636.665 1192.23 641.161 L 1192.59 642.625 C 1188.36 645.992 1126.66 659.393 1117.2 660.591 L 1115.56 662.496 C 1116.43 666.586 1152.41 711.782 1157.51 718.846 C 1157.64 722.502 1157.77 724.629 1158.28 728.244 C 1156.16 733.092 1152.91 732.523 1147.76 733.315 C 1118.95 726.676 1090.48 718.702 1062.41 709.418 C 1044.05 703.163 1023.16 693.832 1004.64 687.684 C 1003.48 687.297 999.182 688.534 997.88 689.103 C 974.576 699.293 952.633 708.507 928.297 716.328 C 871.154 734.708 812.565 748.245 753.15 756.794 C 735.17 759.381 718.217 762.294 700.001 762.388 C 698.927 808.469 707.879 870.777 715.429 916.329 C 718.151 932.751 723.848 950.145 726.804 966.527 C 727.756 971.802 727.459 975.149 723.412 978.474 C 710.38 989.183 696.993 1001.38 684.061 1012.01 C 674.917 1019.53 656.321 1037.11 647.214 1042.85 C 640.641 1039.55 628.491 981.156 626.402 971.088 C 614.555 915.532 606.883 859.167 603.451 802.466 C 603.193 798.201 601.551 776.449 602.118 773.355 C 600.709 762.279 601.728 743.755 601.11 731.778 C 600.694 723.703 599.809 712.137 600.026 704.66 C 599.613 695.898 598.272 682.734 600.979 674.913 C 603.298 672.718 606.452 672.038 609.704 671.947 C 736.287 668.404 864.739 641.915 980.114 589.034 C 987.5 585.65 997.003 580.438 1004.46 578.061 z"/>
<path fill="#142032" d="M 600.026 704.66 C 602.204 698.321 601.096 690.647 601.662 683.754 C 605.793 691.741 604.364 761.196 604.37 774.592 L 603.165 775.108 L 603.377 775.508 C 602.424 773.529 603.01 774.119 602.118 773.355 C 600.709 762.279 601.728 743.755 601.11 731.778 C 600.694 723.703 599.809 712.137 600.026 704.66 z"/>
<path fill="#142032" fill-opacity="0.988" d="M 1157.51 718.846 C 1161.42 723.347 1167.1 729.2 1169.36 734.441 L 1168.92 736.499 C 1163.61 738.442 1153.56 734.854 1147.76 733.315 C 1152.91 732.523 1156.16 733.092 1158.28 728.244 C 1157.77 724.629 1157.64 722.502 1157.51 718.846 z"/>
</svg>
